<?xml version="1.0" standalone="no"?>
<!DOCTYPE svg PUBLIC "-//W3C//DTD SVG 20010904//EN"
 "http://www.w3.org/TR/2001/REC-SVG-20010904/DTD/svg10.dtd">
<svg version="1.0" xmlns="http://www.w3.org/2000/svg"
 width="250.000000pt" height="250.000000pt" viewBox="0 0 250.000000 250.000000"
 preserveAspectRatio="xMidYMid meet">

<g transform="translate(0.000000,250.000000) scale(0.100000,-0.100000)"
fill="#000000" stroke="none">
<path d="M282 2062 c10 -26 974 -1691 979 -1692 8 0 301 509 303 525 0 7 -150
274 -334 594 l-335 581 -308 0 c-170 0 -307 -4 -305 -8z"/>
<path d="M1591 2003 c-145 -250 -321 -556 -321 -559 0 -2 138 -4 308 -4 l307
0 96 168 c53 92 135 233 182 315 l86 147 -309 0 -309 0 -40 -67z"/>
<path d="M785 560 c-25 -27 -22 -80 6 -102 30 -25 66 -22 94 7 30 30 31 54 4
89 -26 33 -77 36 -104 6z"/>
<path d="M1642 564 c-47 -32 -16 -124 42 -124 37 0 76 37 76 71 0 58 -67 89
-118 53z"/>
</g>
</svg>
